<svg width="1288" height="270" viewBox="0 0 1288 270" fill="none" xmlns="http://www.w3.org/2000/svg">
<path d="M3.89001 18.15H2.39001V19.65V203.86V205.36H3.89001H24.15H25.65V203.86V120.89H120.46H121.96V119.39V100.79V99.29H120.46H25.65V39.75H136.77H138.27V38.25V19.65V18.15H136.77H3.89001Z" fill="url(#paint0_linear_1_61)" stroke="url(#paint1_linear_1_61)" stroke-width="3" stroke-miterlimit="10"/>
<path d="M148.192 133.64H148.12V135.14C148.12 180.523 181.818 209.04 221.72 209.04C246.861 209.04 268.855 197.72 280.17 176.332V203.85V205.35H281.67H299.15H300.65V203.85V135.14C300.65 112.816 292.853 93.9034 279.384 80.5703C265.917 67.2386 246.876 59.58 224.56 59.58C202.237 59.58 183.126 67.3806 169.591 80.7764C156.363 93.8684 148.541 112.225 148.192 133.64ZM224.62 80.08C240.837 80.08 254.372 85.8398 263.851 95.4461C273.333 105.055 278.84 118.598 278.84 134.31C278.84 149.982 273.334 163.525 263.851 173.144C254.371 182.761 240.836 188.54 224.62 188.54C208.404 188.54 194.869 182.761 185.389 173.144C175.906 163.525 170.4 149.982 170.4 134.31C170.4 118.639 175.906 105.096 185.389 95.4755C194.869 85.8588 208.404 80.08 224.62 80.08Z" fill="url(#paint2_linear_1_61)" stroke="url(#paint3_linear_1_61)" stroke-width="3"/>
<path d="M464.16 205.36H465.66V203.86V131.19C465.66 107.812 458.657 89.8627 446.263 77.7605C433.876 65.6652 416.287 59.59 395.46 59.59C374.633 59.59 357.044 65.6626 344.657 77.7567C332.263 89.8577 325.26 107.807 325.26 131.19V203.86V205.36H326.76H345.64H347.14V203.86V131.19C347.14 114.294 351.981 101.54 360.33 93.0145C368.678 84.4908 380.71 80.01 395.46 80.01C410.21 80.01 422.242 84.4908 430.59 93.0145C438.939 101.54 443.78 114.294 443.78 131.19V203.86V205.36H445.28H464.16Z" fill="url(#paint4_linear_1_61)" stroke="url(#paint5_linear_1_61)" stroke-width="3"/>
<path d="M512.53 221.572L512.161 220.61H511.13H491.98H491.91H489.876L490.477 222.553C495.373 238.376 504.674 249.871 517.059 257.387C529.418 264.888 544.765 268.38 561.72 268.38C582.625 268.38 601.474 263.118 615.109 250.862C628.773 238.58 636.98 219.475 636.98 192.27V135.08C636.98 112.613 629.181 93.6986 615.709 80.4C602.238 67.1034 583.197 59.52 560.89 59.52C516.164 59.52 484.52 91.1194 484.52 134.24C484.52 157.284 492.907 175.785 506.356 188.519C519.792 201.241 538.196 208.13 558.11 208.13C582.881 208.13 603.492 197.633 615.18 178.643V193.1C615.18 213.401 609.555 227.248 600.229 236.035C590.886 244.837 577.59 248.79 561.79 248.79C538.424 248.79 519.782 240.455 512.53 221.572ZM560.96 80.01C577.177 80.01 590.712 85.7698 600.191 95.3761C609.673 104.985 615.18 118.528 615.18 134.24C615.18 149.914 609.676 163.243 600.202 172.652C590.728 182.06 577.192 187.64 560.96 187.64C544.728 187.64 531.192 182.058 521.718 172.648C512.244 163.238 506.74 149.909 506.74 134.24C506.74 118.569 512.246 105.026 521.729 95.4055C531.209 85.7888 544.744 80.01 560.96 80.01Z" fill="url(#paint6_linear_1_61)" stroke="url(#paint7_linear_1_61)" stroke-width="3"/>
<path d="M788.03 176.332V203.85V205.35H789.53H807.01H808.51V203.85V135.14C808.51 112.816 800.71 93.9033 787.24 80.5702C773.772 67.2386 754.731 59.58 732.42 59.58C710.102 59.58 690.994 67.3807 677.46 80.7764C664.233 93.8685 656.411 112.225 656.062 133.64H655.98V135.14C655.98 180.523 689.678 209.04 729.58 209.04C754.721 209.04 776.715 197.72 788.03 176.332ZM732.49 80.08C748.707 80.08 762.242 85.8398 771.721 95.4461C781.203 105.055 786.71 118.598 786.71 134.31C786.71 149.982 781.204 163.525 771.72 173.144C762.241 182.761 748.706 188.54 732.49 188.54C716.274 188.54 702.739 182.761 693.259 173.144C683.776 163.525 678.27 149.982 678.27 134.31C678.27 118.639 683.776 105.096 693.259 95.4755C702.739 85.8588 716.274 80.08 732.49 80.08Z" fill="url(#paint8_linear_1_61)" stroke="url(#paint9_linear_1_61)" stroke-width="3"/>
<path d="M833.06 120.5V122H833.07V203.86V205.36H834.57H853.45H854.95V203.86V120.5C854.95 106.266 858.878 96.2036 865.476 89.6941C872.079 83.1794 881.574 80.01 893.14 80.01C904.706 80.01 914.201 83.1794 920.804 89.6941C927.402 96.2036 931.33 106.266 931.33 120.5V122.44V123.94H932.83H951.42H952.92V122.44V120.78C952.92 100.354 946.911 84.9997 936.303 74.7584C925.706 64.5268 910.717 59.59 893.13 59.59C875.544 59.59 860.489 64.5264 849.823 74.718C839.144 84.9214 833.06 100.206 833.06 120.5Z" fill="url(#paint10_linear_1_61)" stroke="url(#paint11_linear_1_61)" stroke-width="3"/>
<path d="M962.82 133.68V135.18H962.903C963.644 178.092 996.149 208.96 1039.54 208.96C1061.44 208.96 1080.41 201.515 1093.91 188.29C1107.42 175.061 1115.36 156.146 1115.36 133.4V3.88V2.38H1113.86H1094.98H1093.48V3.88V88.7389C1081.97 70.1956 1061.15 59.51 1036.42 59.51C994.733 59.51 962.82 90.0205 962.82 133.68ZM1039.26 80.01C1055.62 80.01 1069.15 85.7714 1078.59 95.3742C1088.04 104.981 1093.48 118.523 1093.48 134.24C1093.48 149.911 1087.97 163.454 1078.49 173.074C1069.01 182.691 1055.48 188.47 1039.26 188.47C1023.04 188.47 1009.51 182.691 1000.03 173.074C990.546 163.454 985.04 149.911 985.04 134.24C985.04 118.563 990.48 105.021 999.926 95.4036C1009.37 85.7904 1022.9 80.01 1039.26 80.01Z" fill="url(#paint12_linear_1_61)" stroke="url(#paint13_linear_1_61)" stroke-width="3"/>
<path d="M1284.97 141.99H1286.47V140.49V134.31C1286.47 91.2045 1255.41 59.59 1210.66 59.59C1166.44 59.59 1135.01 90.4633 1134.29 132.82H1134.27V134.32C1134.27 177.44 1165.91 209.05 1210.65 209.05C1243.6 209.05 1269.51 191.795 1280.45 165.578L1281.32 163.5H1279.07H1258.53H1257.65L1257.22 164.264C1248.51 179.736 1232.21 188.55 1210.65 188.55C1180.78 188.55 1160.02 169.361 1156.87 141.99H1284.97ZM1210.65 80.07C1237.57 80.07 1258.49 95.7787 1263.48 122.12H1157.54C1162.31 96.618 1183.75 80.07 1210.65 80.07Z" fill="url(#paint14_linear_1_61)" stroke="url(#paint15_linear_1_61)" stroke-width="3"/>
<defs>
<linearGradient id="paint0_linear_1_61" x1="70.33" y1="19.65" x2="70.33" y2="203.86" gradientUnits="userSpaceOnUse">
<stop stop-color="#7EE5F4"/>
<stop offset="0.9999" stop-color="#018FD5"/>
<stop offset="1" stop-color="#008FD5"/>
</linearGradient>
<linearGradient id="paint1_linear_1_61" x1="70.33" y1="19.65" x2="70.33" y2="203.86" gradientUnits="userSpaceOnUse">
<stop stop-color="#7EE5F4"/>
<stop offset="1" stop-color="#008FD5"/>
</linearGradient>
<linearGradient id="paint2_linear_1_61" x1="224.385" y1="61.08" x2="224.385" y2="207.54" gradientUnits="userSpaceOnUse">
<stop stop-color="#7EE5F4"/>
<stop offset="0.9999" stop-color="#018FD5"/>
<stop offset="1" stop-color="#008FD5"/>
</linearGradient>
<linearGradient id="paint3_linear_1_61" x1="224.385" y1="61.08" x2="224.385" y2="207.54" gradientUnits="userSpaceOnUse">
<stop stop-color="#7EE5F4"/>
<stop offset="1" stop-color="#008FD5"/>
</linearGradient>
<linearGradient id="paint4_linear_1_61" x1="395.46" y1="61.09" x2="395.46" y2="203.86" gradientUnits="userSpaceOnUse">
<stop stop-color="#7EE5F4"/>
<stop offset="0.9999" stop-color="#018FD5"/>
<stop offset="1" stop-color="#008FD5"/>
</linearGradient>
<linearGradient id="paint5_linear_1_61" x1="395.46" y1="61.09" x2="395.46" y2="203.86" gradientUnits="userSpaceOnUse">
<stop stop-color="#7EE5F4"/>
<stop offset="1" stop-color="#008FD5"/>
</linearGradient>
<linearGradient id="paint6_linear_1_61" x1="560.75" y1="61.02" x2="560.75" y2="266.88" gradientUnits="userSpaceOnUse">
<stop stop-color="#7EE5F4"/>
<stop offset="0.9999" stop-color="#018FD5"/>
<stop offset="1" stop-color="#008FD5"/>
</linearGradient>
<linearGradient id="paint7_linear_1_61" x1="560.75" y1="61.02" x2="560.75" y2="266.88" gradientUnits="userSpaceOnUse">
<stop stop-color="#7EE5F4"/>
<stop offset="1" stop-color="#008FD5"/>
</linearGradient>
<linearGradient id="paint8_linear_1_61" x1="732.245" y1="61.08" x2="732.245" y2="207.54" gradientUnits="userSpaceOnUse">
<stop stop-color="#7EE5F4"/>
<stop offset="0.9999" stop-color="#018FD5"/>
<stop offset="1" stop-color="#008FD5"/>
</linearGradient>
<linearGradient id="paint9_linear_1_61" x1="732.245" y1="61.08" x2="732.245" y2="207.54" gradientUnits="userSpaceOnUse">
<stop stop-color="#7EE5F4"/>
<stop offset="1" stop-color="#008FD5"/>
</linearGradient>
<linearGradient id="paint10_linear_1_61" x1="892.99" y1="61.09" x2="892.99" y2="203.86" gradientUnits="userSpaceOnUse">
<stop stop-color="#7EE5F4"/>
<stop offset="0.9999" stop-color="#018FD5"/>
<stop offset="1" stop-color="#008FD5"/>
</linearGradient>
<linearGradient id="paint11_linear_1_61" x1="892.99" y1="61.09" x2="892.99" y2="203.86" gradientUnits="userSpaceOnUse">
<stop stop-color="#7EE5F4"/>
<stop offset="1" stop-color="#008FD5"/>
</linearGradient>
<linearGradient id="paint12_linear_1_61" x1="1039.09" y1="3.88" x2="1039.09" y2="207.46" gradientUnits="userSpaceOnUse">
<stop stop-color="#7EE5F4"/>
<stop offset="0.9999" stop-color="#018FD5"/>
<stop offset="1" stop-color="#008FD5"/>
</linearGradient>
<linearGradient id="paint13_linear_1_61" x1="1039.09" y1="3.88" x2="1039.09" y2="207.46" gradientUnits="userSpaceOnUse">
<stop stop-color="#7EE5F4"/>
<stop offset="1" stop-color="#008FD5"/>
</linearGradient>
<linearGradient id="paint14_linear_1_61" x1="1210.37" y1="61.09" x2="1210.37" y2="207.55" gradientUnits="userSpaceOnUse">
<stop stop-color="#7EE5F4"/>
<stop offset="0.9999" stop-color="#018FD5"/>
<stop offset="1" stop-color="#008FD5"/>
</linearGradient>
<linearGradient id="paint15_linear_1_61" x1="1210.37" y1="61.09" x2="1210.37" y2="207.55" gradientUnits="userSpaceOnUse">
<stop stop-color="#7EE5F4"/>
<stop offset="1" stop-color="#008FD5"/>
</linearGradient>
</defs>
</svg>
