<svg width="1627" height="303" viewBox="0 0 1627 303" fill="none" xmlns="http://www.w3.org/2000/svg">
<path d="M342.89 51.15H341.39V52.65V236.86V238.36H342.89H363.15H364.65V236.86V153.89H459.46H460.96V152.39V133.79V132.29H459.46H364.65V72.75H475.77H477.27V71.25V52.65V51.15H475.77H342.89Z" fill="url(#paint0_linear_1_63)" stroke="url(#paint1_linear_1_63)" stroke-width="3" stroke-miterlimit="10"/>
<path d="M487.192 166.64H487.12V168.14C487.12 213.523 520.818 242.04 560.72 242.04C585.861 242.04 607.855 230.72 619.17 209.332V236.85V238.35H620.67H638.15H639.65V236.85V168.14C639.65 145.816 631.853 126.903 618.384 113.57C604.917 100.239 585.876 92.58 563.56 92.58C541.237 92.58 522.126 100.381 508.591 113.776C495.363 126.868 487.541 145.225 487.192 166.64ZM563.62 113.08C579.837 113.08 593.372 118.84 602.851 128.446C612.333 138.055 617.84 151.598 617.84 167.31C617.84 182.982 612.334 196.525 602.851 206.144C593.371 215.761 579.836 221.54 563.62 221.54C547.404 221.54 533.869 215.761 524.389 206.144C514.906 196.525 509.4 182.982 509.4 167.31C509.4 151.639 514.906 138.096 524.389 128.476C533.869 118.859 547.404 113.08 563.62 113.08Z" fill="url(#paint2_linear_1_63)" stroke="url(#paint3_linear_1_63)" stroke-width="3"/>
<path d="M803.16 238.36H804.66V236.86V164.19C804.66 140.812 797.657 122.863 785.263 110.761C772.876 98.6652 755.287 92.59 734.46 92.59C713.633 92.59 696.044 98.6626 683.657 110.757C671.263 122.858 664.26 140.807 664.26 164.19V236.86V238.36H665.76H684.64H686.14V236.86V164.19C686.14 147.294 690.981 134.54 699.33 126.015C707.678 117.491 719.71 113.01 734.46 113.01C749.21 113.01 761.242 117.491 769.59 126.015C777.939 134.54 782.78 147.294 782.78 164.19V236.86V238.36H784.28H803.16Z" fill="url(#paint4_linear_1_63)" stroke="url(#paint5_linear_1_63)" stroke-width="3"/>
<path d="M851.53 254.572L851.161 253.61H850.13H830.98H830.91H828.876L829.477 255.553C834.373 271.376 843.674 282.871 856.059 290.387C868.418 297.888 883.765 301.38 900.72 301.38C921.625 301.38 940.474 296.118 954.109 283.862C967.773 271.58 975.98 252.475 975.98 225.27V168.08C975.98 145.613 968.181 126.699 954.709 113.4C941.238 100.103 922.197 92.52 899.89 92.52C855.164 92.52 823.52 124.119 823.52 167.24C823.52 190.284 831.907 208.785 845.356 221.519C858.792 234.241 877.196 241.13 897.11 241.13C921.881 241.13 942.492 230.633 954.18 211.643V226.1C954.18 246.401 948.555 260.248 939.229 269.035C929.886 277.837 916.59 281.79 900.79 281.79C877.424 281.79 858.782 273.455 851.53 254.572ZM899.96 113.01C916.177 113.01 929.712 118.77 939.191 128.376C948.673 137.985 954.18 151.528 954.18 167.24C954.18 182.914 948.676 196.243 939.202 205.652C929.728 215.06 916.192 220.64 899.96 220.64C883.728 220.64 870.192 215.058 860.718 205.648C851.244 196.238 845.74 182.909 845.74 167.24C845.74 151.569 851.246 138.026 860.729 128.406C870.209 118.789 883.744 113.01 899.96 113.01Z" fill="url(#paint6_linear_1_63)" stroke="url(#paint7_linear_1_63)" stroke-width="3"/>
<path d="M1127.03 209.332V236.85V238.35H1128.53H1146.01H1147.51V236.85V168.14C1147.51 145.816 1139.71 126.903 1126.24 113.57C1112.77 100.239 1093.73 92.58 1071.42 92.58C1049.1 92.58 1029.99 100.381 1016.46 113.776C1003.23 126.868 995.411 145.225 995.062 166.64H994.98V168.14C994.98 213.523 1028.68 242.04 1068.58 242.04C1093.72 242.04 1115.71 230.72 1127.03 209.332ZM1071.49 113.08C1087.71 113.08 1101.24 118.84 1110.72 128.446C1120.2 138.055 1125.71 151.598 1125.71 167.31C1125.71 182.982 1120.2 196.525 1110.72 206.144C1101.24 215.761 1087.71 221.54 1071.49 221.54C1055.27 221.54 1041.74 215.761 1032.26 206.144C1022.78 196.525 1017.27 182.982 1017.27 167.31C1017.27 151.639 1022.78 138.096 1032.26 128.476C1041.74 118.859 1055.27 113.08 1071.49 113.08Z" fill="url(#paint8_linear_1_63)" stroke="url(#paint9_linear_1_63)" stroke-width="3"/>
<path d="M1172.06 153.5V155H1172.07V236.86V238.36H1173.57H1192.45H1193.95V236.86V153.5C1193.95 139.266 1197.88 129.204 1204.48 122.694C1211.08 116.179 1220.57 113.01 1232.14 113.01C1243.71 113.01 1253.2 116.179 1259.8 122.694C1266.4 129.204 1270.33 139.266 1270.33 153.5V155.44V156.94H1271.83H1290.42H1291.92V155.44V153.78C1291.92 133.354 1285.91 118 1275.3 107.758C1264.71 97.5268 1249.72 92.59 1232.13 92.59C1214.54 92.59 1199.49 97.5264 1188.82 107.718C1178.14 117.921 1172.06 133.206 1172.06 153.5Z" fill="url(#paint10_linear_1_63)" stroke="url(#paint11_linear_1_63)" stroke-width="3"/>
<path d="M1301.82 166.68V168.18H1301.9C1302.64 211.092 1335.15 241.96 1378.54 241.96C1400.44 241.96 1419.41 234.515 1432.91 221.29C1446.42 208.061 1454.36 189.146 1454.36 166.4V36.88V35.38H1452.86H1433.98H1432.48V36.88V121.739C1420.97 103.196 1400.15 92.51 1375.42 92.51C1333.73 92.51 1301.82 123.02 1301.82 166.68ZM1378.26 113.01C1394.62 113.01 1408.15 118.771 1417.59 128.374C1427.04 137.981 1432.48 151.523 1432.48 167.24C1432.48 182.911 1426.97 196.454 1417.49 206.074C1408.01 215.691 1394.48 221.47 1378.26 221.47C1362.04 221.47 1348.51 215.691 1339.03 206.074C1329.55 196.454 1324.04 182.911 1324.04 167.24C1324.04 151.563 1329.48 138.021 1338.93 128.404C1348.37 118.79 1361.9 113.01 1378.26 113.01Z" fill="url(#paint12_linear_1_63)" stroke="url(#paint13_linear_1_63)" stroke-width="3"/>
<path d="M1623.97 174.99H1625.47V173.49V167.31C1625.47 124.205 1594.41 92.59 1549.66 92.59C1505.44 92.59 1474.01 123.463 1473.29 165.82H1473.27V167.32C1473.27 210.44 1504.91 242.05 1549.65 242.05C1582.6 242.05 1608.51 224.795 1619.45 198.578L1620.32 196.5H1618.07H1597.53H1596.65L1596.22 197.264C1587.51 212.736 1571.21 221.55 1549.65 221.55C1519.78 221.55 1499.02 202.361 1495.87 174.99H1623.97ZM1549.65 113.07C1576.57 113.07 1597.49 128.779 1602.48 155.12H1496.54C1501.31 129.618 1522.75 113.07 1549.65 113.07Z" fill="url(#paint14_linear_1_63)" stroke="url(#paint15_linear_1_63)" stroke-width="3"/>
<path d="M20.91 114.65C18.85 109.33 16.56 104.1 14.84 98.69C10.4 84.78 5.82999 70.89 2.03999 56.8C-3.12001 37.59 4.43998 24.53 23.39 18.81C52.87 9.87999 83.01 4.39999 113.71 2.20999C173.33 -2.03001 218.66 1.34999 275.38 20.1C284.07 22.97 298.77 26.78 293.39 43C290.07 56.78 288.33 63.63 284.36 77.23C280.12 91.72 269.18 97.22 254.74 92.43C214.55 79.09 173.35 72.98 131.05 74.94C101.11 76.32 71.83 81.68 43.23 90.64C31.7 94.25 24.84 102.29 22.95 114.44C22.78 115.51 21.31 115.68 20.92 114.67V114.65H20.91Z" fill="url(#paint16_linear_1_63)"/>
<path d="M270.97 131.12C264.36 147.06 254.12 161.25 245.13 175.97C237.07 189.17 226.81 192.2 212.35 186.97C191.03 179.24 169.47 175.77 147.68 176.04C145.41 176.07 143.96 178.52 145.09 180.5C148.5 186.42 152.41 191.58 156.95 196.1C169.48 208.55 177.72 212.6 186.84 218.98C195.66 225.16 196.38 225.55 202.83 230.36C210.3 235.93 200.59 247.38 197.81 251.27C179.43 277.25 170.24 290.22 161.78 290.87C158.95 291.09 153.62 290.85 134.53 275.91C122.81 266.75 112.07 258.35 99.36 243.36C78.63 218.94 58.23 187 46.11 165C44.71 162.84 43.28 160.68 41.94 158.19C39.49 153.61 37.11 148.99 34.84 144.33C28.54 131.34 33.67 117.47 47.18 112.22C86.84 96.83 128.01 91.28 170.35 94.32C203.64 96.72 236.03 102.82 266.83 115.8C271.52 117.77 273.72 124.44 270.94 131.14H270.96V131.12H270.97Z" fill="url(#paint17_linear_1_63)"/>
<defs>
<linearGradient id="paint0_linear_1_63" x1="409.33" y1="52.65" x2="409.33" y2="236.86" gradientUnits="userSpaceOnUse">
<stop stop-color="#7EE5F4"/>
<stop offset="0.9999" stop-color="#018FD5"/>
<stop offset="1" stop-color="#008FD5"/>
</linearGradient>
<linearGradient id="paint1_linear_1_63" x1="409.33" y1="52.65" x2="409.33" y2="236.86" gradientUnits="userSpaceOnUse">
<stop stop-color="#7EE5F4"/>
<stop offset="1" stop-color="#008FD5"/>
</linearGradient>
<linearGradient id="paint2_linear_1_63" x1="563.385" y1="94.08" x2="563.385" y2="240.54" gradientUnits="userSpaceOnUse">
<stop stop-color="#7EE5F4"/>
<stop offset="0.9999" stop-color="#018FD5"/>
<stop offset="1" stop-color="#008FD5"/>
</linearGradient>
<linearGradient id="paint3_linear_1_63" x1="563.385" y1="94.08" x2="563.385" y2="240.54" gradientUnits="userSpaceOnUse">
<stop stop-color="#7EE5F4"/>
<stop offset="1" stop-color="#008FD5"/>
</linearGradient>
<linearGradient id="paint4_linear_1_63" x1="734.46" y1="94.09" x2="734.46" y2="236.86" gradientUnits="userSpaceOnUse">
<stop stop-color="#7EE5F4"/>
<stop offset="0.9999" stop-color="#018FD5"/>
<stop offset="1" stop-color="#008FD5"/>
</linearGradient>
<linearGradient id="paint5_linear_1_63" x1="734.46" y1="94.09" x2="734.46" y2="236.86" gradientUnits="userSpaceOnUse">
<stop stop-color="#7EE5F4"/>
<stop offset="1" stop-color="#008FD5"/>
</linearGradient>
<linearGradient id="paint6_linear_1_63" x1="899.75" y1="94.02" x2="899.75" y2="299.88" gradientUnits="userSpaceOnUse">
<stop stop-color="#7EE5F4"/>
<stop offset="0.9999" stop-color="#018FD5"/>
<stop offset="1" stop-color="#008FD5"/>
</linearGradient>
<linearGradient id="paint7_linear_1_63" x1="899.75" y1="94.02" x2="899.75" y2="299.88" gradientUnits="userSpaceOnUse">
<stop stop-color="#7EE5F4"/>
<stop offset="1" stop-color="#008FD5"/>
</linearGradient>
<linearGradient id="paint8_linear_1_63" x1="1071.24" y1="94.08" x2="1071.24" y2="240.54" gradientUnits="userSpaceOnUse">
<stop stop-color="#7EE5F4"/>
<stop offset="0.9999" stop-color="#018FD5"/>
<stop offset="1" stop-color="#008FD5"/>
</linearGradient>
<linearGradient id="paint9_linear_1_63" x1="1071.24" y1="94.08" x2="1071.24" y2="240.54" gradientUnits="userSpaceOnUse">
<stop stop-color="#7EE5F4"/>
<stop offset="1" stop-color="#008FD5"/>
</linearGradient>
<linearGradient id="paint10_linear_1_63" x1="1231.99" y1="94.09" x2="1231.99" y2="236.86" gradientUnits="userSpaceOnUse">
<stop stop-color="#7EE5F4"/>
<stop offset="0.9999" stop-color="#018FD5"/>
<stop offset="1" stop-color="#008FD5"/>
</linearGradient>
<linearGradient id="paint11_linear_1_63" x1="1231.99" y1="94.09" x2="1231.99" y2="236.86" gradientUnits="userSpaceOnUse">
<stop stop-color="#7EE5F4"/>
<stop offset="1" stop-color="#008FD5"/>
</linearGradient>
<linearGradient id="paint12_linear_1_63" x1="1378.09" y1="36.88" x2="1378.09" y2="240.46" gradientUnits="userSpaceOnUse">
<stop stop-color="#7EE5F4"/>
<stop offset="0.9999" stop-color="#018FD5"/>
<stop offset="1" stop-color="#008FD5"/>
</linearGradient>
<linearGradient id="paint13_linear_1_63" x1="1378.09" y1="36.88" x2="1378.09" y2="240.46" gradientUnits="userSpaceOnUse">
<stop stop-color="#7EE5F4"/>
<stop offset="1" stop-color="#008FD5"/>
</linearGradient>
<linearGradient id="paint14_linear_1_63" x1="1549.37" y1="94.09" x2="1549.37" y2="240.55" gradientUnits="userSpaceOnUse">
<stop stop-color="#7EE5F4"/>
<stop offset="0.9999" stop-color="#018FD5"/>
<stop offset="1" stop-color="#008FD5"/>
</linearGradient>
<linearGradient id="paint15_linear_1_63" x1="1549.37" y1="94.09" x2="1549.37" y2="240.55" gradientUnits="userSpaceOnUse">
<stop stop-color="#7EE5F4"/>
<stop offset="1" stop-color="#008FD5"/>
</linearGradient>
<linearGradient id="paint16_linear_1_63" x1="147.501" y1="0.579605" x2="147.501" y2="115.342" gradientUnits="userSpaceOnUse">
<stop stop-color="#7EE5F4"/>
<stop offset="1" stop-color="#00AEFF"/>
</linearGradient>
<linearGradient id="paint17_linear_1_63" x1="152.166" y1="93.5199" x2="152.166" y2="290.908" gradientUnits="userSpaceOnUse">
<stop offset="0.286458" stop-color="#00AEFF"/>
<stop offset="1" stop-color="#008FD5"/>
</linearGradient>
</defs>
</svg>
