<?xml version="1.0" encoding="UTF-8"?><svg id="Layer_1" xmlns="http://www.w3.org/2000/svg" viewBox="0 0 178.41 207.16"><defs><style>.cls-1{fill:#085976;stroke-width:10px;}.cls-1,.cls-2{stroke:#becbdc;stroke-miterlimit:10;}.cls-2{fill:none;stroke-width:14px;}</style></defs><path class="cls-1" d="M5.67,33.47c-1.4,16.56-1.91,48.25,12.05,83.45,20.42,51.44,58.37,76.56,71.5,84.42,13.08-7.81,51.08-32.92,71.5-84.42,14.09-35.54,13.42-67.54,11.95-84.07-10.36-7.7-40.47-27.96-83.45-27.85C46.08,5.1,15.96,25.7,5.67,33.47Z"/><path class="cls-2" d="M41.77,104.97c6.48,3.2,14.77,8.08,23.31,15.43,8.61,7.41,14.71,14.95,18.86,20.91,9.1-16.69,20.76-35.4,35.66-54.83,11.76-15.34,23.55-28.55,34.63-39.77"/></svg>