<?xml version="1.0" encoding="UTF-8"?><svg id="Layer_1" xmlns="http://www.w3.org/2000/svg" xmlns:xlink="http://www.w3.org/1999/xlink" viewBox="0 0 880.46 207.16"><defs><style>.cls-1{fill:url(#radial-gradient-4);}.cls-2{fill:url(#radial-gradient);}.cls-3{fill:#085976;stroke-width:10px;}.cls-3,.cls-4{stroke:#becbdc;stroke-miterlimit:10;}.cls-5{fill:url(#radial-gradient-2);}.cls-6{fill:url(#radial-gradient-3);}.cls-4{fill:none;stroke-width:14px;}</style><radialGradient id="radial-gradient" cx="375.43" cy="102.46" fx="375.43" fy="102.46" r="419.49" gradientUnits="userSpaceOnUse"><stop offset=".23" stop-color="#5d86a4"/><stop offset=".77" stop-color="#f5f4f4" stop-opacity="0"/></radialGradient><radialGradient id="radial-gradient-2" cx="446.4" cy="111.16" fx="446.4" fy="111.16" r="308.83" gradientUnits="userSpaceOnUse"><stop offset=".23" stop-color="#085976"/><stop offset=".95" stop-color="#f5f4f4" stop-opacity="0"/></radialGradient><radialGradient id="radial-gradient-3" cx="419.7" cy="100.94" fx="419.7" fy="100.94" r="437.36" gradientUnits="userSpaceOnUse"><stop offset=".23" stop-color="#5d86a4"/><stop offset=".73" stop-color="#f5f4f4" stop-opacity="0"/></radialGradient><radialGradient id="radial-gradient-4" cx="410.91" cy="82.46" fx="410.91" fy="82.46" r="324.88" gradientUnits="userSpaceOnUse"><stop offset=".23" stop-color="#085976"/><stop offset=".95" stop-color="#f5f4f4" stop-opacity="0"/></radialGradient></defs><path class="cls-2" d="M51.43,78.26c45.03-27.81,98.14-40.51,175.86-38.06,127.39,4.02,122.25,42.49,261.29,53.49,93.35,7.39,158.24-5,208.8-22.63,22.7-7.91,40.94-16.33,53.49-22.63-14.47,16.21-36.09,37.48-65.83,57.6-15.25,10.32-79.76,53.96-155.58,58.59-113.09,6.91-131.14-80.3-269.49-85.37-42.18-1.55-84.5,4.94-126.25,11.35C78.59,99.07,33.01,110.7,0,120.43c10.91-11.63,27.86-27.61,51.43-42.17Z"/><path class="cls-5" d="M79.2,161.58c25.77-20.32,64.94-47.42,116.99-69.98,143.11-62.01,277.7-43.72,316.04-38.02,89.16,13.25,96.22,34.9,184.88,42.13,76.19,6.22,140.1-4.14,183.35-14.36-61.29,66.97-119.79,85.38-152.23,91.54-36.17,6.87-77.06,.56-157.37-12.34-130.5-20.96-122.11-30.75-175.89-32.91-78.41-3.15-101.16,17.47-217.03,32.91-70.32,9.38-128.29,10.63-165.6,10.29,22.29-3.09,44.57-6.17,66.86-9.26Z"/><path class="cls-6" d="M11.05,31.94c73.94,36.32,139.36,52.13,185.14,59.66,54.53,8.97,183.98,23.1,324.62-24.71,48.19-16.38,54.96-25.28,94.63-32.91,84.56-16.28,160.41,5.55,212.91,27.77-19.44,15.37-49.28,34.31-88.46,41.14-40.11,7-66.12-2.86-96.54-8.03-47.65-8.1-103.13,6.53-214.09,35.81-115.86,30.57-131.49,46.56-187.82,42.2-17.23-1.33-64.62-6.61-117.26-34.97C61.1,103.89,26.26,56.01,11.05,31.94Z"/><path class="cls-1" d="M46.29,28.89c50.17,14.2,128.36,31.95,225.26,34.97,102.9,3.21,148.1-12.65,240.69-10.29,62.11,1.59,152.71,11.55,263.31,52.46-54.69-5.72-142.59-11.04-249.94,1.03-112.55,12.65-156.1,34.26-234.51,27.77-57.77-4.78-143.37-25.54-244.8-105.94Z"/><path class="cls-3" d="M347.91,33.47c-1.4,16.56-1.91,48.25,12.05,83.45,20.42,51.44,58.37,76.56,71.5,84.42,13.08-7.81,51.08-32.92,71.5-84.42,14.09-35.54,13.42-67.54,11.95-84.07-10.36-7.7-40.47-27.96-83.45-27.85-43.14,.1-73.26,20.7-83.55,28.47Z"/><path class="cls-4" d="M384,104.97c6.48,3.2,14.77,8.08,23.31,15.43,8.61,7.41,14.71,14.95,18.86,20.91,9.1-16.69,20.76-35.4,35.66-54.83,11.76-15.34,23.55-28.55,34.63-39.77"/></svg>