<svg width="295" height="291" viewBox="0 0 295 291" fill="none" xmlns="http://www.w3.org/2000/svg">
<path d="M20.4512 114.07C18.3912 108.75 16.1012 103.52 14.3812 98.1104C9.94118 84.2004 5.37118 70.3104 1.58118 56.2204C-3.57882 37.0104 3.98118 23.9504 22.9312 18.2304C52.4112 9.30039 82.5512 3.82039 113.251 1.63039C172.871 -2.60961 218.201 0.77039 274.921 19.5204C283.611 22.3904 298.311 26.2004 292.931 42.4204C289.611 56.2004 287.871 63.0504 283.901 76.6504C279.661 91.1404 268.721 96.6404 254.281 91.8504C214.091 78.5104 172.891 72.4004 130.591 74.3604C100.651 75.7404 71.3712 81.1004 42.7712 90.0604C31.2412 93.6704 24.3812 101.71 22.4912 113.86C22.3212 114.93 20.8512 115.1 20.4612 114.09V114.07H20.4512Z" fill="#E4E4E4"/>
<path d="M270.511 130.54C263.901 146.48 253.661 160.67 244.671 175.39C236.611 188.59 226.351 191.62 211.891 186.39C190.571 178.66 169.011 175.19 147.221 175.46C144.951 175.49 143.501 177.94 144.631 179.92C148.041 185.84 151.951 191 156.491 195.52C169.021 207.97 177.261 212.02 186.381 218.4C195.201 224.58 195.921 224.97 202.371 229.78C209.841 235.35 200.131 246.8 197.351 250.69C178.971 276.67 169.781 289.64 161.321 290.29C158.491 290.51 153.161 290.27 134.071 275.33C122.351 266.17 111.611 257.77 98.9012 242.78C78.1712 218.36 57.7712 186.42 45.6512 164.42C44.2512 162.26 42.8212 160.1 41.4812 157.61C39.0312 153.03 36.6512 148.41 34.3812 143.75C28.0812 130.76 33.2112 116.89 46.7212 111.64C86.3812 96.2504 127.551 90.7004 169.891 93.7404C203.181 96.1404 235.571 102.24 266.371 115.22C271.061 117.19 273.261 123.86 270.481 130.56H270.501V130.54H270.511Z" fill="#E4E4E4"/>
</svg>
