<svg width="1288" height="270" viewBox="0 0 1288 270" fill="none" xmlns="http://www.w3.org/2000/svg">
<path d="M3.43121 17.5704H1.93121V19.0704V203.28V204.78H3.43121H23.6912H25.1912V203.28V120.31H120.001H121.501V118.81V100.21V98.7104H120.001H25.1912V39.1704H136.311H137.811V37.6704V19.0704V17.5704H136.311H3.43121Z" fill="#E4E4E4" stroke="#E4E4E4" stroke-width="3" stroke-miterlimit="10"/>
<path d="M147.733 133.06H147.661V134.56C147.661 179.943 181.359 208.46 221.261 208.46C246.402 208.46 268.396 197.14 279.711 175.752V203.27V204.77H281.211H298.691H300.191V203.27V134.56C300.191 112.236 292.394 93.3238 278.925 79.9907C265.458 66.659 246.417 59.0004 224.101 59.0004C201.779 59.0004 182.667 66.801 169.132 80.1968C155.904 93.2889 148.082 111.646 147.733 133.06ZM224.161 79.5004C240.379 79.5004 253.913 85.2602 263.392 94.8665C272.874 104.476 278.381 118.018 278.381 133.73C278.381 149.402 272.875 162.945 263.392 172.565C253.912 182.182 240.377 187.96 224.161 187.96C207.945 187.96 194.411 182.182 184.931 172.565C175.448 162.945 169.941 149.402 169.941 133.73C169.941 118.059 175.448 104.516 184.931 94.896C194.411 85.2792 207.945 79.5004 224.161 79.5004Z" fill="#E4E4E4" stroke="#E4E4E4" stroke-width="3"/>
<path d="M463.701 204.78H465.201V203.28V130.61C465.201 107.233 458.198 89.2831 445.804 77.1809C433.417 65.0856 415.828 59.0104 395.001 59.0104C374.175 59.0104 356.586 65.083 344.198 77.1771C331.804 89.2781 324.801 107.228 324.801 130.61V203.28V204.78H326.301H345.181H346.681V203.28V130.61C346.681 113.715 351.522 100.961 359.872 92.4349C368.219 83.9112 380.252 79.4304 395.001 79.4304C409.751 79.4304 421.784 83.9112 430.131 92.4349C438.48 100.961 443.321 113.715 443.321 130.61V203.28V204.78H444.821H463.701Z" fill="#E4E4E4" stroke="#E4E4E4" stroke-width="3"/>
<path d="M512.071 220.993L511.702 220.03H510.671H491.521H491.451H489.417L490.018 221.974C494.914 237.797 504.215 249.291 516.6 256.808C528.96 264.309 544.306 267.8 561.261 267.8C582.167 267.8 601.015 262.538 614.65 250.282C628.315 238 636.521 218.896 636.521 191.69V134.5C636.521 112.033 628.723 93.1191 615.25 79.8204C601.779 66.5239 582.738 58.9404 560.431 58.9404C515.705 58.9404 484.061 90.5399 484.061 133.66C484.061 156.704 492.448 175.205 505.897 187.94C519.333 200.662 537.737 207.55 557.651 207.55C582.423 207.55 603.033 197.054 614.721 178.063V192.52C614.721 212.822 609.096 226.668 599.77 235.455C590.427 244.258 577.131 248.21 561.331 248.21C537.966 248.21 519.324 239.875 512.071 220.993ZM560.501 79.4304C576.719 79.4304 590.253 85.1902 599.732 94.7965C609.214 104.406 614.721 117.948 614.721 133.66C614.721 149.335 609.217 162.664 599.743 172.072C590.269 181.481 576.733 187.06 560.501 187.06C544.269 187.06 530.733 181.478 521.26 172.069C511.786 162.659 506.281 149.329 506.281 133.66C506.281 117.989 511.788 104.446 521.271 94.826C530.751 85.2092 544.285 79.4304 560.501 79.4304Z" fill="#E4E4E4" stroke="#E4E4E4" stroke-width="3"/>
<path d="M787.571 175.752V203.27V204.77H789.071H806.551H808.051V203.27V134.56C808.051 112.236 800.251 93.3237 786.781 79.9906C773.313 66.659 754.272 59.0004 731.961 59.0004C709.644 59.0004 690.535 66.8011 677.001 80.1968C663.774 93.2889 655.952 111.646 655.603 133.06H655.521V134.56C655.521 179.943 689.219 208.46 729.121 208.46C754.262 208.46 776.256 197.14 787.571 175.752ZM732.031 79.5004C748.249 79.5004 761.783 85.2602 771.262 94.8665C780.744 104.476 786.251 118.018 786.251 133.73C786.251 149.402 780.745 162.945 771.262 172.565C761.782 182.182 748.247 187.96 732.031 187.96C715.815 187.96 702.281 182.182 692.801 172.565C683.318 162.945 677.811 149.402 677.811 133.73C677.811 118.059 683.318 104.516 692.801 94.896C702.281 85.2792 715.815 79.5004 732.031 79.5004Z" fill="#E4E4E4" stroke="#E4E4E4" stroke-width="3"/>
<path d="M832.601 119.92V121.42H832.611V203.28V204.78H834.111H852.991H854.491V203.28V119.92C854.491 105.687 858.419 95.624 865.017 89.1145C871.621 82.5998 881.115 79.4304 892.681 79.4304C904.247 79.4304 913.742 82.5998 920.345 89.1145C926.944 95.624 930.871 105.687 930.871 119.92V121.86V123.36H932.371H950.961H952.461V121.86V120.2C952.461 99.7741 946.452 84.42 935.844 74.1787C925.247 63.9472 910.258 59.0104 892.671 59.0104C875.085 59.0104 860.03 63.9468 849.364 74.1384C838.685 84.3418 832.601 99.6261 832.601 119.92Z" fill="#E4E4E4" stroke="#E4E4E4" stroke-width="3"/>
<path d="M962.361 133.1V134.6H962.444C963.185 177.513 995.69 208.38 1039.08 208.38C1060.98 208.38 1079.95 200.936 1093.45 187.711C1106.96 174.482 1114.9 155.567 1114.9 132.82V3.30042V1.80042H1113.4H1094.52H1093.02V3.30042V88.1593C1081.51 69.6161 1060.69 58.9304 1035.96 58.9304C994.274 58.9304 962.361 89.4409 962.361 133.1ZM1038.8 79.4304C1055.16 79.4304 1068.69 85.1918 1078.14 94.7946C1087.58 104.401 1093.02 117.943 1093.02 133.66C1093.02 149.332 1087.51 162.875 1078.03 172.495C1068.55 182.112 1055.02 187.89 1038.8 187.89C1022.59 187.89 1009.05 182.112 999.571 172.495C990.088 162.875 984.581 149.332 984.581 133.66C984.581 117.984 990.021 104.441 999.468 94.824C1008.91 85.2108 1022.44 79.4304 1038.8 79.4304Z" fill="#E4E4E4" stroke="#E4E4E4" stroke-width="3"/>
<path d="M1284.51 141.41H1286.01V139.91V133.73C1286.01 90.6249 1254.95 59.0104 1210.2 59.0104C1165.98 59.0104 1134.55 89.8837 1133.83 132.24H1133.81V133.74C1133.81 176.861 1165.46 208.47 1210.19 208.47C1243.14 208.47 1269.05 191.215 1280 164.998L1280.86 162.92H1278.61H1258.07H1257.19L1256.76 163.684C1248.05 179.156 1231.75 187.97 1210.19 187.97C1180.32 187.97 1159.56 168.781 1156.41 141.41H1284.51ZM1210.19 79.4904C1237.11 79.4904 1258.03 95.1991 1263.02 121.54H1157.08C1161.85 96.0384 1183.29 79.4904 1210.19 79.4904Z" fill="#E4E4E4" stroke="#E4E4E4" stroke-width="3"/>
</svg>
