<svg width="1627" height="303" viewBox="0 0 1627 303" fill="none" xmlns="http://www.w3.org/2000/svg">
<path d="M342.431 50.5704H340.931V52.0704V236.28V237.78H342.431H362.691H364.191V236.28V153.31H459.001H460.501V151.81V133.21V131.71H459.001H364.191V72.1704H475.311H476.811V70.6704V52.0704V50.5704H475.311H342.431Z" fill="#E4E4E4" stroke="#E4E4E4" stroke-width="3" stroke-miterlimit="10"/>
<path d="M486.733 166.06H486.661V167.56C486.661 212.943 520.359 241.46 560.261 241.46C585.402 241.46 607.396 230.14 618.711 208.752V236.27V237.77H620.211H637.691H639.191V236.27V167.56C639.191 145.236 631.394 126.324 617.925 112.991C604.458 99.659 585.417 92.0004 563.101 92.0004C540.779 92.0004 521.667 99.801 508.132 113.197C494.904 126.289 487.082 144.646 486.733 166.06ZM563.161 112.5C579.379 112.5 592.913 118.26 602.392 127.866C611.874 137.476 617.381 151.018 617.381 166.73C617.381 182.402 611.875 195.945 602.392 205.565C592.912 215.182 579.377 220.96 563.161 220.96C546.945 220.96 533.411 215.182 523.931 205.565C514.448 195.945 508.941 182.402 508.941 166.73C508.941 151.059 514.448 137.516 523.931 127.896C533.411 118.279 546.945 112.5 563.161 112.5Z" fill="#E4E4E4" stroke="#E4E4E4" stroke-width="3"/>
<path d="M802.701 237.78H804.201V236.28V163.61C804.201 140.233 797.198 122.283 784.804 110.181C772.417 98.0856 754.828 92.0104 734.001 92.0104C713.175 92.0104 695.586 98.083 683.198 110.177C670.804 122.278 663.801 140.228 663.801 163.61V236.28V237.78H665.301H684.181H685.681V236.28V163.61C685.681 146.715 690.522 133.961 698.872 125.435C707.219 116.911 719.252 112.43 734.001 112.43C748.751 112.43 760.784 116.911 769.131 125.435C777.48 133.961 782.321 146.715 782.321 163.61V236.28V237.78H783.821H802.701Z" fill="#E4E4E4" stroke="#E4E4E4" stroke-width="3"/>
<path d="M851.071 253.993L850.702 253.03H849.671H830.521H830.451H828.417L829.018 254.974C833.914 270.797 843.215 282.291 855.6 289.808C867.96 297.309 883.306 300.8 900.261 300.8C921.167 300.8 940.015 295.538 953.65 283.282C967.315 271 975.521 251.896 975.521 224.69V167.5C975.521 145.033 967.723 126.119 954.25 112.82C940.779 99.5239 921.738 91.9404 899.431 91.9404C854.705 91.9404 823.061 123.54 823.061 166.66C823.061 189.704 831.448 208.205 844.897 220.94C858.333 233.662 876.737 240.55 896.651 240.55C921.423 240.55 942.033 230.054 953.721 211.063V225.52C953.721 245.822 948.096 259.668 938.77 268.455C929.427 277.258 916.131 281.21 900.331 281.21C876.966 281.21 858.324 272.875 851.071 253.993ZM899.501 112.43C915.719 112.43 929.253 118.19 938.732 127.797C948.214 137.406 953.721 150.948 953.721 166.66C953.721 182.335 948.217 195.664 938.743 205.072C929.269 214.481 915.733 220.06 899.501 220.06C883.269 220.06 869.733 214.478 860.26 205.069C850.786 195.659 845.281 182.329 845.281 166.66C845.281 150.989 850.788 137.446 860.271 127.826C869.751 118.209 883.285 112.43 899.501 112.43Z" fill="#E4E4E4" stroke="#E4E4E4" stroke-width="3"/>
<path d="M1126.57 208.752V236.27V237.77H1128.07H1145.55H1147.05V236.27V167.56C1147.05 145.236 1139.25 126.324 1125.78 112.991C1112.31 99.659 1093.27 92.0004 1070.96 92.0004C1048.64 92.0004 1029.53 99.8011 1016 113.197C1002.77 126.289 994.952 144.646 994.603 166.06H994.521V167.56C994.521 212.943 1028.22 241.46 1068.12 241.46C1093.26 241.46 1115.26 230.14 1126.57 208.752ZM1071.03 112.5C1087.25 112.5 1100.78 118.26 1110.26 127.866C1119.74 137.476 1125.25 151.018 1125.25 166.73C1125.25 182.402 1119.74 195.945 1110.26 205.565C1100.78 215.182 1087.25 220.96 1071.03 220.96C1054.82 220.96 1041.28 215.182 1031.8 205.565C1022.32 195.945 1016.81 182.402 1016.81 166.73C1016.81 151.059 1022.32 137.516 1031.8 127.896C1041.28 118.279 1054.82 112.5 1071.03 112.5Z" fill="#E4E4E4" stroke="#E4E4E4" stroke-width="3"/>
<path d="M1171.6 152.92V154.42H1171.61V236.28V237.78H1173.11H1191.99H1193.49V236.28V152.92C1193.49 138.687 1197.42 128.624 1204.02 122.114C1210.62 115.6 1220.12 112.43 1231.68 112.43C1243.25 112.43 1252.74 115.6 1259.35 122.114C1265.94 128.624 1269.87 138.687 1269.87 152.92V154.86V156.36H1271.37H1289.96H1291.46V154.86V153.2C1291.46 132.774 1285.45 117.42 1274.84 107.179C1264.25 96.9472 1249.26 92.0104 1231.67 92.0104C1214.08 92.0104 1199.03 96.9468 1188.36 107.138C1177.69 117.342 1171.6 132.626 1171.6 152.92Z" fill="#E4E4E4" stroke="#E4E4E4" stroke-width="3"/>
<path d="M1301.36 166.1V167.6H1301.44C1302.18 210.513 1334.69 241.38 1378.08 241.38C1399.98 241.38 1418.95 233.936 1432.45 220.711C1445.96 207.482 1453.9 188.567 1453.9 165.82V36.3004V34.8004H1452.4H1433.52H1432.02V36.3004V121.159C1420.51 102.616 1399.69 91.9304 1374.96 91.9304C1333.27 91.9304 1301.36 122.441 1301.36 166.1ZM1377.8 112.43C1394.16 112.43 1407.69 118.192 1417.14 127.795C1426.58 137.401 1432.02 150.943 1432.02 166.66C1432.02 182.332 1426.51 195.875 1417.03 205.495C1407.55 215.112 1394.02 220.89 1377.8 220.89C1361.59 220.89 1348.05 215.112 1338.57 205.495C1329.09 195.875 1323.58 182.332 1323.58 166.66C1323.58 150.984 1329.02 137.441 1338.47 127.824C1347.91 118.211 1361.44 112.43 1377.8 112.43Z" fill="#E4E4E4" stroke="#E4E4E4" stroke-width="3"/>
<path d="M1623.51 174.41H1625.01V172.91V166.73C1625.01 123.625 1593.95 92.0104 1549.2 92.0104C1504.98 92.0104 1473.55 122.884 1472.83 165.24H1472.81V166.74C1472.81 209.861 1504.46 241.47 1549.19 241.47C1582.14 241.47 1608.05 224.215 1619 197.998L1619.86 195.92H1617.61H1597.07H1596.19L1595.76 196.684C1587.05 212.156 1570.75 220.97 1549.19 220.97C1519.32 220.97 1498.56 201.781 1495.41 174.41H1623.51ZM1549.19 112.49C1576.11 112.49 1597.03 128.199 1602.02 154.54H1496.08C1500.85 129.038 1522.29 112.49 1549.19 112.49Z" fill="#E4E4E4" stroke="#E4E4E4" stroke-width="3"/>
<path d="M20.4512 114.07C18.3912 108.75 16.1012 103.52 14.3812 98.1104C9.94118 84.2004 5.37118 70.3104 1.58118 56.2204C-3.57882 37.0104 3.98118 23.9504 22.9312 18.2304C52.4112 9.30039 82.5512 3.82039 113.251 1.63039C172.871 -2.60961 218.201 0.77039 274.921 19.5204C283.611 22.3904 298.311 26.2004 292.931 42.4204C289.611 56.2004 287.871 63.0504 283.901 76.6504C279.661 91.1404 268.721 96.6404 254.281 91.8504C214.091 78.5104 172.891 72.4004 130.591 74.3604C100.651 75.7404 71.3712 81.1004 42.7712 90.0604C31.2412 93.6704 24.3812 101.71 22.4912 113.86C22.3212 114.93 20.8512 115.1 20.4612 114.09V114.07H20.4512Z" fill="#E4E4E4"/>
<path d="M270.511 130.54C263.901 146.48 253.661 160.67 244.671 175.39C236.611 188.59 226.351 191.62 211.891 186.39C190.571 178.66 169.011 175.19 147.221 175.46C144.951 175.49 143.501 177.94 144.631 179.92C148.041 185.84 151.951 191 156.491 195.52C169.021 207.97 177.261 212.02 186.381 218.4C195.201 224.58 195.921 224.97 202.371 229.78C209.841 235.35 200.131 246.8 197.351 250.69C178.971 276.67 169.781 289.64 161.321 290.29C158.491 290.51 153.161 290.27 134.071 275.33C122.351 266.17 111.611 257.77 98.9012 242.78C78.1712 218.36 57.7712 186.42 45.6512 164.42C44.2512 162.26 42.8212 160.1 41.4812 157.61C39.0312 153.03 36.6512 148.41 34.3812 143.75C28.0812 130.76 33.2112 116.89 46.7212 111.64C86.3812 96.2504 127.551 90.7004 169.891 93.7404C203.181 96.1404 235.571 102.24 266.371 115.22C271.061 117.19 273.261 123.86 270.481 130.56H270.501V130.54H270.511Z" fill="#E4E4E4"/>
</svg>
