<svg width="295" height="291" viewBox="0 0 295 291" fill="none" xmlns="http://www.w3.org/2000/svg">
<path d="M20.91 114.65C18.85 109.33 16.56 104.1 14.84 98.69C10.4 84.78 5.82999 70.89 2.03999 56.8C-3.12001 37.59 4.43998 24.53 23.39 18.81C52.87 9.87999 83.01 4.39999 113.71 2.20999C173.33 -2.03001 218.66 1.34999 275.38 20.1C284.07 22.97 298.77 26.78 293.39 43C290.07 56.78 288.33 63.63 284.36 77.23C280.12 91.72 269.18 97.22 254.74 92.43C214.55 79.09 173.35 72.98 131.05 74.94C101.11 76.32 71.83 81.68 43.23 90.64C31.7 94.25 24.84 102.29 22.95 114.44C22.78 115.51 21.31 115.68 20.92 114.67V114.65H20.91Z" fill="url(#paint0_linear_1_62)" stroke="url(#paint1_linear_1_62)" stroke-width="0.65" stroke-miterlimit="10"/>
<path d="M270.97 131.12C264.36 147.06 254.12 161.25 245.13 175.97C237.07 189.17 226.81 192.2 212.35 186.97C191.03 179.24 169.47 175.77 147.68 176.04C145.41 176.07 143.96 178.52 145.09 180.5C148.5 186.42 152.41 191.58 156.95 196.1C169.48 208.55 177.72 212.6 186.84 218.98C195.66 225.16 196.38 225.55 202.83 230.36C210.3 235.93 200.59 247.38 197.81 251.27C179.43 277.25 170.24 290.22 161.78 290.87C158.95 291.09 153.62 290.85 134.53 275.91C122.81 266.75 112.07 258.35 99.36 243.36C78.63 218.94 58.23 187 46.11 165C44.71 162.84 43.28 160.68 41.94 158.19C39.49 153.61 37.11 148.99 34.84 144.33C28.54 131.34 33.67 117.47 47.18 112.22C86.84 96.83 128.01 91.28 170.35 94.32C203.64 96.72 236.03 102.82 266.83 115.8C271.52 117.77 273.72 124.44 270.94 131.14H270.96V131.12H270.97Z" fill="url(#paint2_linear_1_62)"/>
<defs>
<linearGradient id="paint0_linear_1_62" x1="147.501" y1="0.579605" x2="147.501" y2="115.342" gradientUnits="userSpaceOnUse">
<stop stop-color="#7EE5F4"/>
<stop offset="1" stop-color="#00AEFF"/>
</linearGradient>
<linearGradient id="paint1_linear_1_62" x1="147.501" y1="0.579605" x2="147.501" y2="115.342" gradientUnits="userSpaceOnUse">
<stop stop-color="#7EE5F4"/>
<stop offset="1" stop-color="#00AEFF"/>
</linearGradient>
<linearGradient id="paint2_linear_1_62" x1="152.166" y1="93.5199" x2="152.166" y2="290.908" gradientUnits="userSpaceOnUse">
<stop offset="0.286458" stop-color="#00AEFF"/>
<stop offset="1" stop-color="#008FD5"/>
</linearGradient>
</defs>
</svg>
