<svg width="73" height="73" viewBox="0 0 73 73" fill="none" xmlns="http://www.w3.org/2000/svg">
<rect width="73" height="73" rx="10" fill="#00aeff"/>
<rect x="11.25" y="34.25" width="7.5" height="23.5" fill="#7ee5f4" stroke="#008fd5" stroke-width="0.5"/>
<rect x="54.25" y="34.25" width="7.5" height="23.5" fill="#7ee5f4" stroke="#008fd5" stroke-width="0.5"/>
<rect x="6" y="64" width="3" height="61" transform="rotate(-90 6 64)" fill="white"/>
<rect x="6.25" y="63.75" width="2.5" height="60.5" transform="rotate(-90 6.25 63.75)" fill="#7ee5f4" stroke="#008fd5" stroke-width="0.5"/>
<rect x="5.25" y="66.75" width="2.5" height="62.5" transform="rotate(-90 5.25 66.75)" fill="#7ee5f4" stroke="#008fd5" stroke-width="0.5"/>
<rect x="7.25" y="60.75" width="2.5" height="58.5" transform="rotate(-90 7.25 60.75)" fill="#7ee5f4" stroke="#008fd5" stroke-width="0.5"/>
<rect x="-0.25" y="-0.25" width="2.5" height="60.5" transform="matrix(0 -1 -1 0 66.5 30.5)" fill="#7ee5f4" stroke="#008fd5" stroke-width="0.5"/>
<rect x="-0.25" y="-0.25" width="2.5" height="58.5" transform="matrix(0 -1 -1 0 65.5 33.5)" fill="#7ee5f4" stroke="#008fd5" stroke-width="0.5"/>
<path d="M5.71816 27.75L36.5 7.30014L67.2818 27.75H5.71816Z" fill="#7ee5f4" stroke="#008fd5" stroke-width="0.5"/>
<ellipse cx="36.5" cy="46" rx="12.5" ry="12" fill="#008fd5"/>
<path d="M36.9668 51.9844C38.0801 51.9323 38.8483 51.5254 39.2715 50.7637C39.4928 50.373 39.6035 49.9206 39.6035 49.4062C39.6035 48.5924 39.304 47.974 38.7051 47.5508C38.36 47.3034 37.7806 47.069 36.9668 46.8477V51.9844ZM33.6562 42.5605C33.6562 43.2051 33.8678 43.7096 34.291 44.0742C34.7207 44.4388 35.2969 44.6927 36.0195 44.8359V40.2461C35.1667 40.2786 34.5579 40.5391 34.1934 41.0273C33.8353 41.5156 33.6562 42.0267 33.6562 42.5605ZM31.8984 42.6777C31.8984 41.6882 32.2598 40.7962 32.9824 40.002C33.7116 39.2077 34.7305 38.804 36.0391 38.791V37.4922H36.9668V38.7715C38.2624 38.8626 39.2552 39.2467 39.9453 39.9238C40.6419 40.5944 41.0065 41.4831 41.0391 42.5898H39.3301C39.2845 42.0951 39.151 41.6686 38.9297 41.3105C38.5195 40.653 37.8652 40.3079 36.9668 40.2754V45.0215C38.4772 45.4447 39.5026 45.8418 40.043 46.2129C40.9219 46.8249 41.3613 47.7298 41.3613 48.9277C41.3613 50.6595 40.7982 51.89 39.6719 52.6191C39.0469 53.0228 38.1452 53.2897 36.9668 53.4199V55.3145H36.0391V53.4199C34.1445 53.2962 32.8587 52.6257 32.1816 51.4082C31.8105 50.7507 31.625 49.862 31.625 48.7422H33.3535C33.4056 49.6341 33.5456 50.2852 33.7734 50.6953C34.1771 51.431 34.9258 51.8444 36.0195 51.9355V46.6133C34.6133 46.3464 33.5749 45.9004 32.9043 45.2754C32.2337 44.6504 31.8984 43.7845 31.8984 42.6777Z" fill="#D9D9D9"/>
</svg>
