<?xml version="1.0" standalone="no"?>
<!DOCTYPE svg PUBLIC "-//W3C//DTD SVG 20010904//EN"
 "http://www.w3.org/TR/2001/REC-SVG-20010904/DTD/svg10.dtd">
<svg version="1.0" xmlns="http://www.w3.org/2000/svg"
 width="128.000000pt" height="128.000000pt" viewBox="0 0 128.000000 128.000000"
 preserveAspectRatio="xMidYMid meet">

<g transform="translate(0.000000,128.000000) scale(0.100000,-0.100000)"
fill="#000000" stroke="none">
<path d="M395 1191 c-38 -16 -67 -58 -72 -104 -5 -45 -5 -45 -50 -50 -33 -3
-54 -13 -77 -36 l-31 -31 0 -410 0 -410 33 -32 32 -33 330 0 330 0 31 31 c23
23 33 44 36 77 5 45 5 45 50 50 33 3 54 13 77 36 l31 31 0 410 0 410 -33 32
-32 33 -318 2 c-174 1 -326 -2 -337 -6z m633 -83 c17 -17 17 -759 0 -776 -17
-17 -599 -17 -616 0 -17 17 -17 759 0 776 17 17 599 17 616 0z m-706 -473 l3
-325 33 -32 32 -33 245 -3 245 -3 0 -27 c0 -16 -5 -33 -12 -40 -17 -17 -599
-17 -616 0 -17 17 -17 759 0 776 7 7 24 12 40 12 l27 0 3 -325z"/>
</g>
</svg>
