<svg width="1208" height="453" viewBox="0 0 1208 453" fill="none" xmlns="http://www.w3.org/2000/svg">
<path d="M79.0295 113.934C132.077 98.8431 224.911 73.2151 345.691 77.4702C345.691 77.4702 448.581 81.0345 536.016 109.966C596.876 130.101 588.533 136.786 641.871 155.142C664.568 162.949 785.118 204.45 919.721 182.882C975.663 173.915 980.391 165.718 1035.75 162.271C1087.42 159.059 1130.7 164.265 1159.92 169.4C1121.75 173.316 1079.72 179.109 1034.73 187.632C966.568 200.547 960.979 207.708 918.699 214.583C825.885 229.667 746.284 214.374 710.474 207.187C664.979 198.058 672.351 194.239 564.012 161.567C481.105 136.558 439.646 124.06 398.618 117.883C331.557 107.796 279.722 110.461 197.095 114.71C145.92 117.342 86.9726 122.51 22.0352 132.147C35.227 127.449 54.8094 120.809 79.0295 113.921V113.934Z" fill="url(#paint0_radial_537_6646)"/>
<path d="M98.0607 323.321C151.098 338.304 243.942 363.753 364.722 359.535C364.722 359.535 467.612 355.992 555.047 327.26C615.908 307.265 607.564 300.622 660.902 282.395C683.6 274.64 804.149 233.434 938.752 254.846C994.694 263.752 999.422 271.89 1054.78 275.316C1106.45 278.507 1149.73 273.333 1178.95 268.237C1140.79 264.343 1098.75 258.597 1053.76 250.133C985.599 237.308 980.01 230.197 937.73 223.371C844.917 208.394 765.315 223.579 729.506 230.717C684.01 239.785 691.383 243.574 583.043 276.018C500.136 300.856 458.677 313.265 417.65 319.395C350.589 329.412 298.753 326.766 216.126 322.547C164.951 319.934 106.004 314.799 41.0664 305.23C54.2582 309.898 73.8406 316.489 98.0607 323.334V323.321Z" fill="url(#paint1_radial_537_6646)"/>
<path d="M82.1367 337.062C133.832 317.685 214.335 294.087 314.03 293.328C416.881 292.544 449.014 316.777 542.859 311.059C645.629 304.81 633.759 274.126 788.476 238.95C974.563 196.642 1104.84 215.306 1140.88 221.219C1169.66 225.938 1192.84 231.455 1208 235.403C1166.28 231.786 1110.96 229.335 1046.29 233.044C1001.62 235.598 913.352 241.167 811.353 272.058C704.757 304.337 710.226 325.795 613.035 347.714C577.877 355.642 510.816 370.242 426.917 363.078C359.606 357.341 345.863 343.085 277.41 333.523C232.005 327.182 166.306 323.429 82.1367 337.069V337.062Z" fill="url(#paint2_radial_537_6646)"/>
<path d="M0 137.126C51.6955 156.629 132.199 180.38 231.894 181.143C334.744 181.933 366.877 157.549 460.722 163.297C563.492 169.588 551.623 200.471 706.339 235.875C892.427 278.458 1022.7 259.672 1058.74 253.721C1087.52 248.971 1110.71 243.412 1125.86 239.438C1084.14 243.079 1028.82 245.545 964.155 241.813C919.482 239.242 831.215 233.637 729.217 202.546C622.62 170.057 628.089 148.46 530.898 126.398C495.74 118.418 428.679 103.724 344.781 110.934C277.469 116.715 263.726 131.057 195.273 140.682C149.868 147.063 84.1693 150.835 0 137.113V137.126Z" fill="url(#paint3_radial_537_6646)"/>
<path d="M19.0312 110.703C134.092 88.5742 224.651 94.2565 278.601 101.191C345.732 109.829 401.554 126.262 449.614 140.412C548.367 169.483 549.399 180.762 603.829 195.082C730.498 228.393 794.875 185.694 994.716 187.951C1071.78 188.826 1135.18 195.995 1177.95 202.213C1141.76 204.861 1088.27 209.265 1023.73 216.474C884.343 232.046 874.437 240.475 809.97 244.996C672.733 254.631 562.25 227.355 489.319 209.343C393.801 185.753 371.254 141.828 281.666 136.844C243.763 134.737 221.797 139.545 165.624 135.657C102.259 131.266 51.6652 119.693 19.0413 110.703H19.0312Z" fill="url(#paint4_radial_537_6646)"/>
<path d="M38.0625 356.297C153.023 378.426 243.502 372.744 297.412 365.809C364.493 357.171 420.255 340.738 468.274 326.588C566.948 297.517 567.979 286.231 622.359 271.918C748.919 238.607 813.245 281.306 1012.91 279.049C1089.9 278.174 1153.24 271.005 1195.98 264.787C1159.82 262.139 1106.38 257.735 1041.89 250.526C902.623 234.961 892.727 226.532 828.31 222.004C691.193 212.369 580.811 239.645 507.94 257.657C412.502 281.247 389.975 325.172 300.467 330.15C262.604 332.257 240.648 327.449 184.525 331.343C121.21 335.734 70.6665 347.307 38.0625 356.304V356.297Z" fill="url(#paint5_radial_537_6646)"/>
<path d="M492.765 151.07C490.792 174.38 490.071 218.98 509.753 268.52C538.541 340.92 592.039 376.27 610.55 387.34C628.991 376.35 682.559 341.01 711.347 268.52C731.21 218.5 730.268 173.46 728.195 150.2C713.591 139.36 671.14 110.85 610.55 111C549.729 111.14 507.269 140.13 492.765 151.07Z" fill="#085976" stroke="#085976" stroke-width="10" stroke-miterlimit="10"/>
<path d="M441.152 198.545H402.487V264H412.272V236.26H435.167V227.33H412.272V207.475H441.152V198.545ZM491.759 264L470.574 210.04H460.314L439.034 264H449.104L454.139 250.7H476.749L481.689 264H491.759ZM465.444 220.585L473.614 242.435H457.179L465.444 220.585ZM532.639 246.14L509.744 210.04H500.719V264H510.219V227.425L533.399 264H542.139V210.04H532.639V246.14ZM583.597 264.76C599.747 264.76 610.577 255.925 610.672 236.26H584.072V244.145H600.317C599.747 251.175 592.337 256.115 583.597 256.115C572.672 256.115 564.407 247.375 564.407 237.21C564.407 226.76 572.767 218.305 583.597 218.305C588.727 218.305 593.382 220.3 596.802 223.53L603.547 217.45C598.607 212.605 591.577 209.375 583.597 209.375C567.447 209.375 554.907 221.82 554.907 237.21C554.907 252.315 567.447 264.76 583.597 264.76ZM667.101 264L645.916 210.04H635.656L614.376 264H624.446L629.481 250.7H652.091L657.031 264H667.101ZM640.786 220.585L648.956 242.435H632.521L640.786 220.585ZM716.436 264L701.521 243.955C711.591 242.53 715.866 235.215 715.866 227.425C715.866 218.78 710.641 210.04 698.006 210.04H676.061V264H685.561V244.24H690.976L705.131 264H716.436ZM697.531 218.59C703.041 218.59 706.366 222.675 706.366 227.52C706.366 232.46 703.326 236.355 696.011 236.355H685.561V218.59H697.531ZM751.167 264C767.317 264 776.627 252.41 776.627 237.21C776.627 221.82 767.317 210.04 751.167 210.04H729.127V264H751.167ZM738.627 218.59H751.167C761.712 218.59 767.127 227.14 767.127 237.21C767.127 247.185 761.712 255.545 751.167 255.545H738.627V218.59ZM798.928 241.77H820.778V233.125H798.928V218.59H823.913V210.04H789.523V264H824.673V255.545H798.928V241.77Z" fill="#BECBDC"/>
<defs>
<radialGradient id="paint0_radial_537_6646" cx="0" cy="0" r="1" gradientUnits="userSpaceOnUse" gradientTransform="translate(589.443 146.682) scale(407.584 317.414)">
<stop offset="0.19" stop-color="#BECBDC"/>
<stop offset="0.59" stop-color="#BECBDC" stop-opacity="0.77"/>
<stop offset="1" stop-color="white" stop-opacity="0"/>
</radialGradient>
<radialGradient id="paint1_radial_537_6646" cx="0" cy="0" r="1" gradientUnits="userSpaceOnUse" gradientTransform="translate(608.475 287.811) scale(407.584 315.209)">
<stop offset="0.19" stop-color="#5D86A4"/>
<stop offset="0.59" stop-color="#5D86A4" stop-opacity="0.77"/>
<stop offset="1" stop-color="white" stop-opacity="0"/>
</radialGradient>
<radialGradient id="paint2_radial_537_6646" cx="0" cy="0" r="1" gradientUnits="userSpaceOnUse" gradientTransform="translate(647.608 287.318) scale(404.129 313.152)">
<stop offset="0.19" stop-color="#BECBDC"/>
<stop offset="0.59" stop-color="#BECBDC" stop-opacity="0.77"/>
<stop offset="1" stop-color="white" stop-opacity="0"/>
</radialGradient>
<radialGradient id="paint3_radial_537_6646" cx="0" cy="0" r="1" gradientUnits="userSpaceOnUse" gradientTransform="translate(565.472 184.829) scale(404.129 315.185)">
<stop offset="0.19" stop-color="#5D86A4"/>
<stop offset="0.59" stop-color="#5D86A4" stop-opacity="0.77"/>
<stop offset="1" stop-color="white" stop-opacity="0"/>
</radialGradient>
<radialGradient id="paint4_radial_537_6646" cx="0" cy="0" r="1" gradientUnits="userSpaceOnUse" gradientTransform="translate(598.367 170.192) scale(415.518 323.405)">
<stop offset="0.19" stop-color="#085976"/>
<stop offset="0.73" stop-color="#085976" stop-opacity="0.5"/>
<stop offset="1" stop-color="white" stop-opacity="0"/>
</radialGradient>
<radialGradient id="paint5_radial_537_6646" cx="0" cy="0" r="1" gradientUnits="userSpaceOnUse" gradientTransform="translate(617.739 295.194) scale(415.157 323.405)">
<stop offset="0.19" stop-color="#085976"/>
<stop offset="0.73" stop-color="#085976" stop-opacity="0.5"/>
<stop offset="1" stop-color="white" stop-opacity="0"/>
</radialGradient>
</defs>
</svg>
