<svg width="1511" height="294" viewBox="0 0 1511 294" fill="none" xmlns="http://www.w3.org/2000/svg">
<g clip-path="url(#clip0_537_6555)">
<path d="M-1 305.941C243.953 393.115 430.807 404.263 554.847 398.864C748.84 390.426 843.06 339.166 1122.31 313.919C1285.37 299.186 1423.41 301.263 1511 304.935V165.037C1447.63 162.392 1350.23 160.556 1233.29 168.031C1107.43 176.076 1093.47 186.284 958.093 196.011C871.993 202.197 746.6 210.722 595.447 198C497.167 189.738 487.04 180.841 401.313 172.01C310.92 162.72 177.267 157.714 -0.953333 180.994V305.941H-1Z" fill="#BECBDC"/>
<path d="M-1 260.714C544.953 186.502 797.327 213.083 926.08 254.725C961.08 266.026 1062.58 302.924 1222.6 330.663C1339.41 350.905 1442.17 358.446 1511 361.638V127.155C1266.05 39.9589 1079.19 28.8326 955.153 34.2318C761.16 42.6694 666.94 93.9291 387.687 119.176C224.587 133.888 86.5467 131.811 -1 128.139C-1 172.338 -1 216.515 -1 260.714Z" fill="#5D86A4"/>
<path opacity="0.8" d="M-1.00021 286.944C305.693 253.74 509.44 274.2 640.2 299.929C766.386 324.761 832.98 356.128 962.34 350.882C1070.75 346.488 1119.75 320.564 1312.2 293.917C1395.13 282.441 1465.03 276.299 1511 272.933V181.365C1429.61 177.845 1311.83 167.812 1190.59 136.401C1061.13 102.847 997.48 62.9757 955.9 44.4611C845.58 -4.63449 599.833 -32.7453 -1.04688 67.435V286.944H-1.00021Z" fill="#085976"/>
<path opacity="0.5" d="M-1.00021 200.688C96.5798 218.897 247.593 241.455 435.38 245.652C661.666 250.702 768.486 225.236 1002.85 223.662C1122.83 222.853 1297.17 228.187 1511 258.637V143.723C1417.57 141.69 1269.13 135.745 1092.45 115.744C718.553 73.4026 578.693 8.89629 358.566 27.8044C269.246 35.477 139.373 59.2379 -1.04688 138.543V200.688H-1.00021Z" fill="#5D86A4" fill-opacity="0.5"/>
</g>
<defs>
<clipPath id="clip0_537_6555">
<rect width="1512" height="400" fill="white" transform="matrix(1 0 0 -1 -1 400)"/>
</clipPath>
</defs>
</svg>
