<svg width="881" height="208" viewBox="0 0 881 208" fill="none" xmlns="http://www.w3.org/2000/svg">
<g clip-path="url(#clip0_537_8351)">
<path d="M51.43 78.2595C96.46 50.4495 149.57 37.7495 227.29 40.1995C354.68 44.2195 349.54 82.6895 488.58 93.6895C581.93 101.08 646.82 88.6895 697.38 71.0595C720.08 63.1495 738.32 54.7295 750.87 48.4295C736.4 64.6395 714.78 85.9095 685.04 106.03C669.79 116.35 605.28 159.99 529.46 164.62C416.37 171.53 398.32 84.3195 259.97 79.2495C217.79 77.6995 175.47 84.1895 133.72 90.5995C78.59 99.0695 33.01 110.7 0 120.43C10.91 108.8 27.86 92.8195 51.43 78.2595Z" fill="url(#paint0_radial_537_8351)"/>
<path d="M79.1998 161.58C104.97 141.26 144.14 114.16 196.19 91.6001C339.3 29.5901 473.89 47.8801 512.23 53.5801C601.39 66.8301 608.45 88.4801 697.11 95.7101C773.3 101.93 837.21 91.5701 880.46 81.3501C819.17 148.32 760.67 166.73 728.23 172.89C692.06 179.76 651.17 173.45 570.86 160.55C440.36 139.59 448.75 129.8 394.97 127.64C316.56 124.49 293.81 145.11 177.94 160.55C107.62 169.93 49.6498 171.18 12.3398 170.84C34.6298 167.75 56.9098 164.67 79.1998 161.58Z" fill="url(#paint1_radial_537_8351)"/>
<path d="M11.0508 31.9406C84.9908 68.2606 150.411 84.0706 196.191 91.6006C250.721 100.571 380.171 114.701 520.811 66.8906C569.001 50.5106 575.771 41.6106 615.441 33.9806C700.001 17.7006 775.851 39.5306 828.351 61.7506C808.911 77.1206 779.071 96.0606 739.891 102.891C699.781 109.891 673.771 100.031 643.351 94.8606C595.701 86.7606 540.221 101.391 429.261 130.671C313.401 161.241 297.771 177.231 241.441 172.871C224.211 171.541 176.821 166.261 124.181 137.901C61.1008 103.891 26.2608 56.0106 11.0508 31.9406Z" fill="url(#paint2_radial_537_8351)"/>
<path d="M46.2891 28.8906C96.4591 43.0906 174.649 60.8406 271.549 63.8606C374.449 67.0706 419.649 51.2106 512.239 53.5706C574.349 55.1606 664.949 65.1206 775.549 106.031C720.859 100.311 632.959 94.9906 525.609 107.061C413.059 119.711 369.509 141.321 291.099 134.831C233.329 130.051 147.729 109.291 46.2991 28.8906H46.2891Z" fill="url(#paint3_radial_537_8351)"/>
<path d="M347.911 33.4704C346.511 50.0304 346.001 81.7204 359.961 116.92C380.381 168.36 418.331 193.48 431.461 201.34C444.541 193.53 482.541 168.42 502.961 116.92C517.051 81.3804 516.381 49.3804 514.911 32.8504C504.551 25.1504 474.441 4.89045 431.461 5.00045C388.321 5.10045 358.201 25.7004 347.911 33.4704Z" fill="#085976" stroke="#BECBDC" stroke-width="10" stroke-miterlimit="10"/>
<path d="M384 104.971C390.48 108.171 398.77 113.051 407.31 120.401C415.92 127.811 422.02 135.351 426.17 141.311C435.27 124.621 446.93 105.911 461.83 86.4809C473.59 71.1409 485.38 57.9309 496.46 46.7109" stroke="#BECBDC" stroke-width="14" stroke-miterlimit="10"/>
<path d="M343.5 31L345 29.5L348 33.5L343 33L343.5 31Z" fill="#BECBDC" stroke="#BECBDC" stroke-width="0.1"/>
</g>
<defs>
<radialGradient id="paint0_radial_537_8351" cx="0" cy="0" r="1" gradientUnits="userSpaceOnUse" gradientTransform="translate(375.43 102.46) scale(419.49 419.49)">
<stop offset="0.23" stop-color="#5D86A4"/>
<stop offset="0.77" stop-color="#F5F4F4" stop-opacity="0"/>
</radialGradient>
<radialGradient id="paint1_radial_537_8351" cx="0" cy="0" r="1" gradientUnits="userSpaceOnUse" gradientTransform="translate(446.4 111.16) scale(308.83 308.83)">
<stop offset="0.23" stop-color="#085976"/>
<stop offset="0.95" stop-color="#F5F4F4" stop-opacity="0"/>
</radialGradient>
<radialGradient id="paint2_radial_537_8351" cx="0" cy="0" r="1" gradientUnits="userSpaceOnUse" gradientTransform="translate(419.701 100.941) scale(437.36 437.36)">
<stop offset="0.23" stop-color="#5D86A4"/>
<stop offset="0.73" stop-color="#F5F4F4" stop-opacity="0"/>
</radialGradient>
<radialGradient id="paint3_radial_537_8351" cx="0" cy="0" r="1" gradientUnits="userSpaceOnUse" gradientTransform="translate(410.909 82.4606) scale(324.88 324.88)">
<stop offset="0.23" stop-color="#085976"/>
<stop offset="0.95" stop-color="#F5F4F4" stop-opacity="0"/>
</radialGradient>
<clipPath id="clip0_537_8351">
<rect width="880.46" height="207.16" fill="white"/>
</clipPath>
</defs>
</svg>
